<mxfile host="app.diagrams.net" modified="2023-04-03T01:01:54.722Z" agent="Mozilla/5.0 (Windows NT 10.0; Win64; x64; rv:109.0) Gecko/20100101 Firefox/111.0" etag="MjGRO-ORrHutS--VniV_" version="21.1.2" type="device">
  <diagram name="Page-1" id="aL4rRErR7mit0OdxLXVy">
    <mxGraphModel dx="1434" dy="746" grid="1" gridSize="10" guides="1" tooltips="1" connect="1" arrows="1" fold="1" page="1" pageScale="1" pageWidth="850" pageHeight="1100" math="0" shadow="0">
      <root>
        <mxCell id="0" />
        <mxCell id="1" parent="0" />
        <mxCell id="z-LtX3hPKu4DxkjuDIdh-1" value="Initial State" style="ellipse;whiteSpace=wrap;html=1;" vertex="1" parent="1">
          <mxGeometry x="130" y="220" width="120" height="80" as="geometry" />
        </mxCell>
        <mxCell id="z-LtX3hPKu4DxkjuDIdh-2" value="SOS" style="ellipse;whiteSpace=wrap;html=1;" vertex="1" parent="1">
          <mxGeometry x="360" y="220" width="120" height="80" as="geometry" />
        </mxCell>
        <mxCell id="z-LtX3hPKu4DxkjuDIdh-3" value="OK" style="ellipse;whiteSpace=wrap;html=1;" vertex="1" parent="1">
          <mxGeometry x="590" y="220" width="120" height="80" as="geometry" />
        </mxCell>
        <mxCell id="z-LtX3hPKu4DxkjuDIdh-4" value="" style="endArrow=classic;html=1;rounded=0;exitX=1;exitY=0.5;exitDx=0;exitDy=0;entryX=0;entryY=0.5;entryDx=0;entryDy=0;" edge="1" parent="1" source="z-LtX3hPKu4DxkjuDIdh-1" target="z-LtX3hPKu4DxkjuDIdh-2">
          <mxGeometry width="50" height="50" relative="1" as="geometry">
            <mxPoint x="400" y="410" as="sourcePoint" />
            <mxPoint x="280" y="120" as="targetPoint" />
          </mxGeometry>
        </mxCell>
        <mxCell id="z-LtX3hPKu4DxkjuDIdh-5" value="" style="endArrow=classic;html=1;rounded=0;entryX=0;entryY=0;entryDx=0;entryDy=0;exitX=0.933;exitY=0.238;exitDx=0;exitDy=0;exitPerimeter=0;" edge="1" parent="1" source="z-LtX3hPKu4DxkjuDIdh-2" target="z-LtX3hPKu4DxkjuDIdh-3">
          <mxGeometry width="50" height="50" relative="1" as="geometry">
            <mxPoint x="400" y="410" as="sourcePoint" />
            <mxPoint x="450" y="360" as="targetPoint" />
          </mxGeometry>
        </mxCell>
        <mxCell id="z-LtX3hPKu4DxkjuDIdh-6" value="" style="endArrow=classic;html=1;rounded=0;entryX=0.975;entryY=0.7;entryDx=0;entryDy=0;entryPerimeter=0;exitX=0.067;exitY=0.738;exitDx=0;exitDy=0;exitPerimeter=0;" edge="1" parent="1" source="z-LtX3hPKu4DxkjuDIdh-3" target="z-LtX3hPKu4DxkjuDIdh-2">
          <mxGeometry width="50" height="50" relative="1" as="geometry">
            <mxPoint x="440" y="500" as="sourcePoint" />
            <mxPoint x="490" y="450" as="targetPoint" />
          </mxGeometry>
        </mxCell>
        <mxCell id="z-LtX3hPKu4DxkjuDIdh-7" value="" style="endArrow=classic;html=1;rounded=0;exitX=0.808;exitY=0.95;exitDx=0;exitDy=0;exitPerimeter=0;entryX=0.1;entryY=0.813;entryDx=0;entryDy=0;entryPerimeter=0;" edge="1" parent="1" source="z-LtX3hPKu4DxkjuDIdh-2" target="z-LtX3hPKu4DxkjuDIdh-2">
          <mxGeometry width="50" height="50" relative="1" as="geometry">
            <mxPoint x="460" y="480" as="sourcePoint" />
            <mxPoint x="500" y="480" as="targetPoint" />
            <Array as="points">
              <mxPoint x="400" y="370" />
            </Array>
          </mxGeometry>
        </mxCell>
        <mxCell id="z-LtX3hPKu4DxkjuDIdh-8" value="" style="endArrow=classic;html=1;rounded=0;exitX=0.733;exitY=0.038;exitDx=0;exitDy=0;exitPerimeter=0;entryX=0.208;entryY=0.1;entryDx=0;entryDy=0;entryPerimeter=0;" edge="1" parent="1" source="z-LtX3hPKu4DxkjuDIdh-2" target="z-LtX3hPKu4DxkjuDIdh-2">
          <mxGeometry width="50" height="50" relative="1" as="geometry">
            <mxPoint x="467" y="306" as="sourcePoint" />
            <mxPoint x="382" y="295" as="targetPoint" />
            <Array as="points">
              <mxPoint x="420" y="120" />
            </Array>
          </mxGeometry>
        </mxCell>
        <mxCell id="z-LtX3hPKu4DxkjuDIdh-9" value="" style="endArrow=classic;html=1;rounded=0;entryX=0.5;entryY=0;entryDx=0;entryDy=0;" edge="1" parent="1" target="z-LtX3hPKu4DxkjuDIdh-3">
          <mxGeometry width="50" height="50" relative="1" as="geometry">
            <mxPoint x="700" y="240" as="sourcePoint" />
            <mxPoint x="770" y="50" as="targetPoint" />
            <Array as="points">
              <mxPoint x="800" y="140" />
            </Array>
          </mxGeometry>
        </mxCell>
        <mxCell id="z-LtX3hPKu4DxkjuDIdh-10" value="" style="endArrow=classic;html=1;rounded=0;exitX=0.5;exitY=1;exitDx=0;exitDy=0;entryX=0.967;entryY=0.75;entryDx=0;entryDy=0;entryPerimeter=0;" edge="1" parent="1" source="z-LtX3hPKu4DxkjuDIdh-3" target="z-LtX3hPKu4DxkjuDIdh-3">
          <mxGeometry width="50" height="50" relative="1" as="geometry">
            <mxPoint x="710" y="390" as="sourcePoint" />
            <mxPoint x="760" y="340" as="targetPoint" />
            <Array as="points">
              <mxPoint x="720" y="440" />
            </Array>
          </mxGeometry>
        </mxCell>
        <mxCell id="z-LtX3hPKu4DxkjuDIdh-11" value="Button Press" style="rounded=0;whiteSpace=wrap;html=1;" vertex="1" parent="1">
          <mxGeometry x="385" y="80" width="70" height="30" as="geometry" />
        </mxCell>
        <mxCell id="z-LtX3hPKu4DxkjuDIdh-12" value="Button Press" style="rounded=0;whiteSpace=wrap;html=1;" vertex="1" parent="1">
          <mxGeometry x="760" y="100" width="70" height="30" as="geometry" />
        </mxCell>
        <mxCell id="z-LtX3hPKu4DxkjuDIdh-13" value="Blinks SOS" style="rounded=0;whiteSpace=wrap;html=1;" vertex="1" parent="1">
          <mxGeometry x="370" y="390" width="65" height="30" as="geometry" />
        </mxCell>
        <mxCell id="z-LtX3hPKu4DxkjuDIdh-14" value="Blinks OK" style="rounded=0;whiteSpace=wrap;html=1;" vertex="1" parent="1">
          <mxGeometry x="680" y="450" width="65" height="30" as="geometry" />
        </mxCell>
      </root>
    </mxGraphModel>
  </diagram>
</mxfile>
